# xmcd
#
# Track frame offsets: 
#        150
#        15635
#        27650
#        41430
#        54854
#        68649
#        81544
#        96262
#        108911
#        123417
#        143742
#        152767
#        164460
#
# Disc length: 2341 seconds
#
# Revision: 0
# Processed by: cddbd v1.5.2PL0 Copyright (c) Steve Scherf et al.
# Submitted via: ExactAudioCopyFreeDBPlugin 1.0
#
DISCID=a709230d
DTITLE=Tim Barry - Lost and Rootless
DYEAR=1900
DGENRE=
TTITLE0=No News From The North
TTITLE1=The James
TTITLE2=Poppa's Porch
TTITLE3=Older and Poorer
TTITLE4=All My Freinds
TTITLE5=Breath Slow, Let Em Pass
TTITLE6=Clay Pigeons [Blaze Foley]
TTITLE7=Lost and Rootless
TTITLE8=Knowing Such Things
TTITLE9=Solid Gone
TTITLE10=Lela Days
TTITLE11=I'm Only PAssing Through
TTITLE12=Mayfly
EXTD=
EXTT0=
EXTT1=
EXTT2=
EXTT3=
EXTT4=
EXTT5=
EXTT6=
EXTT7=
EXTT8=
EXTT9=
EXTT10=
EXTT11=
EXTT12=
PLAYORDER=
